<svg width="168" height="26" viewBox="0 0 168 26" fill="none" xmlns="http://www.w3.org/2000/svg">
<path d="M20.1369 26C22.8983 26 25.1842 23.7425 24.6732 21.0288C24.3528 19.3274 23.8679 17.6594 23.2235 16.0502C21.9602 12.8958 20.1087 10.0295 17.7745 7.61522C15.4403 5.2009 12.6692 3.28575 9.61949 1.97913C8.11383 1.33406 6.55481 0.843538 4.96489 0.512196C2.26154 -0.0511821 0 2.23858 0 5V21C0 23.7614 2.23858 26 5 26H20.1369Z" fill="#5D87FF"/>
<g style="mix-blend-mode:multiply">
<path d="M13.7012 26C10.9398 26 8.65389 23.7425 9.16496 21.0288C9.48538 19.3274 9.97025 17.6594 10.6146 16.0502C11.8779 12.8958 13.7295 10.0295 16.0636 7.61522C18.3978 5.2009 21.1689 3.28575 24.2186 1.97913C25.7243 1.33406 27.2833 0.843538 28.8732 0.512196C31.5766 -0.0511821 33.8381 2.23858 33.8381 5V21C33.8381 23.7614 31.5996 26 28.8381 26H13.7012Z" fill="#49BEFF"/>
</g>
<path d="M45.728 23V5.12H48.848L55.544 14.216H54.056L60.608 5.12H63.728V23H60.44V8.84L61.712 9.152L54.92 18.2H54.536L47.912 9.152L48.992 8.84V23H45.728ZM73.2699 23.288C71.9899 23.288 70.8219 22.992 69.7659 22.4C68.7259 21.808 67.8939 21 67.2699 19.976C66.6619 18.952 66.3579 17.784 66.3579 16.472C66.3579 15.16 66.6619 13.992 67.2699 12.968C67.8939 11.944 68.7259 11.136 69.7659 10.544C70.8059 9.952 71.9739 9.656 73.2699 9.656C74.5499 9.656 75.7099 9.952 76.7499 10.544C77.7899 11.136 78.6139 11.944 79.2219 12.968C79.8459 13.976 80.1579 15.144 80.1579 16.472C80.1579 17.784 79.8459 18.952 79.2219 19.976C78.5979 21 77.7659 21.808 76.7259 22.4C75.6859 22.992 74.5339 23.288 73.2699 23.288ZM73.2699 20.408C73.9739 20.408 74.5899 20.24 75.1179 19.904C75.6619 19.568 76.0859 19.104 76.3899 18.512C76.7099 17.904 76.8699 17.224 76.8699 16.472C76.8699 15.704 76.7099 15.032 76.3899 14.456C76.0859 13.864 75.6619 13.4 75.1179 13.064C74.5899 12.712 73.9739 12.536 73.2699 12.536C72.5499 12.536 71.9179 12.712 71.3739 13.064C70.8299 13.4 70.3979 13.864 70.0779 14.456C69.7739 15.032 69.6219 15.704 69.6219 16.472C69.6219 17.224 69.7739 17.904 70.0779 18.512C70.3979 19.104 70.8299 19.568 71.3739 19.904C71.9179 20.24 72.5499 20.408 73.2699 20.408ZM88.6141 23.288C87.3501 23.288 86.2221 22.992 85.2301 22.4C84.2381 21.792 83.4541 20.968 82.8781 19.928C82.3021 18.888 82.0141 17.736 82.0141 16.472C82.0141 15.192 82.3021 14.04 82.8781 13.016C83.4541 11.992 84.2381 11.176 85.2301 10.568C86.2381 9.96 87.3581 9.656 88.5901 9.656C89.5821 9.656 90.4621 9.856 91.2301 10.256C92.0141 10.64 92.6301 11.184 93.0781 11.888L92.5981 12.536V4.832H95.7421V23H92.7661V20.48L93.1021 21.104C92.6541 21.808 92.0301 22.352 91.2301 22.736C90.4301 23.104 89.5581 23.288 88.6141 23.288ZM88.9501 20.408C89.6701 20.408 90.3021 20.24 90.8461 19.904C91.3901 19.568 91.8141 19.104 92.1181 18.512C92.4381 17.92 92.5981 17.24 92.5981 16.472C92.5981 15.72 92.4381 15.048 92.1181 14.456C91.8141 13.848 91.3901 13.376 90.8461 13.04C90.3021 12.704 89.6701 12.536 88.9501 12.536C88.2461 12.536 87.6141 12.712 87.0541 13.064C86.4941 13.4 86.0541 13.864 85.7341 14.456C85.4301 15.032 85.2781 15.704 85.2781 16.472C85.2781 17.24 85.4301 17.92 85.7341 18.512C86.0541 19.104 86.4941 19.568 87.0541 19.904C87.6141 20.24 88.2461 20.408 88.9501 20.408ZM104.859 23.288C103.515 23.288 102.339 22.984 101.331 22.376C100.323 21.768 99.5391 20.944 98.9791 19.904C98.4191 18.864 98.1391 17.712 98.1391 16.448C98.1391 15.136 98.4191 13.976 98.9791 12.968C99.5551 11.944 100.331 11.136 101.307 10.544C102.299 9.952 103.403 9.656 104.619 9.656C105.643 9.656 106.539 9.824 107.307 10.16C108.091 10.496 108.755 10.96 109.299 11.552C109.843 12.144 110.259 12.824 110.547 13.592C110.835 14.344 110.979 15.16 110.979 16.04C110.979 16.264 110.963 16.496 110.931 16.736C110.915 16.976 110.875 17.184 110.811 17.36H100.731V14.96H109.035L107.547 16.088C107.691 15.352 107.651 14.696 107.427 14.12C107.219 13.544 106.867 13.088 106.371 12.752C105.891 12.416 105.307 12.248 104.619 12.248C103.963 12.248 103.379 12.416 102.867 12.752C102.355 13.072 101.963 13.552 101.691 14.192C101.435 14.816 101.339 15.576 101.403 16.472C101.339 17.272 101.443 17.984 101.715 18.608C102.003 19.216 102.419 19.688 102.963 20.024C103.523 20.36 104.163 20.528 104.883 20.528C105.603 20.528 106.211 20.376 106.707 20.072C107.219 19.768 107.619 19.36 107.907 18.848L110.451 20.096C110.195 20.72 109.795 21.272 109.251 21.752C108.707 22.232 108.059 22.608 107.307 22.88C106.571 23.152 105.755 23.288 104.859 23.288ZM113.362 23V9.944H116.314V12.848L116.074 12.416C116.378 11.44 116.85 10.76 117.49 10.376C118.146 9.992 118.93 9.8 119.842 9.8H120.61V12.584H119.482C118.586 12.584 117.866 12.864 117.322 13.424C116.778 13.968 116.506 14.736 116.506 15.728V23H113.362ZM122.339 23V9.944H125.291V12.512L125.051 12.056C125.355 11.272 125.851 10.68 126.539 10.28C127.243 9.864 128.059 9.656 128.987 9.656C129.947 9.656 130.795 9.864 131.531 10.28C132.283 10.696 132.867 11.28 133.283 12.032C133.699 12.768 133.907 13.624 133.907 14.6V23H130.763V15.344C130.763 14.768 130.651 14.272 130.427 13.856C130.203 13.44 129.891 13.12 129.491 12.896C129.107 12.656 128.651 12.536 128.123 12.536C127.611 12.536 127.155 12.656 126.755 12.896C126.355 13.12 126.043 13.44 125.819 13.856C125.595 14.272 125.483 14.768 125.483 15.344V23H122.339ZM136.566 23V9.944H139.71V23H136.566ZM136.566 8.48V5.12H139.71V8.48H136.566ZM141.484 23V20.456L149.068 11.672L149.548 12.752H141.82V9.944H152.332V12.512L144.892 21.296L144.412 20.216H152.38V23H141.484ZM160.359 23.288C159.015 23.288 157.839 22.984 156.831 22.376C155.823 21.768 155.039 20.944 154.479 19.904C153.919 18.864 153.639 17.712 153.639 16.448C153.639 15.136 153.919 13.976 154.479 12.968C155.055 11.944 155.831 11.136 156.807 10.544C157.799 9.952 158.903 9.656 160.119 9.656C161.143 9.656 162.039 9.824 162.807 10.16C163.591 10.496 164.255 10.96 164.799 11.552C165.343 12.144 165.759 12.824 166.047 13.592C166.335 14.344 166.479 15.16 166.479 16.04C166.479 16.264 166.463 16.496 166.431 16.736C166.415 16.976 166.375 17.184 166.311 17.36H156.231V14.96H164.535L163.047 16.088C163.191 15.352 163.151 14.696 162.927 14.12C162.719 13.544 162.367 13.088 161.871 12.752C161.391 12.416 160.807 12.248 160.119 12.248C159.463 12.248 158.879 12.416 158.367 12.752C157.855 13.072 157.463 13.552 157.191 14.192C156.935 14.816 156.839 15.576 156.903 16.472C156.839 17.272 156.943 17.984 157.215 18.608C157.503 19.216 157.919 19.688 158.463 20.024C159.023 20.36 159.663 20.528 160.383 20.528C161.103 20.528 161.711 20.376 162.207 20.072C162.719 19.768 163.119 19.36 163.407 18.848L165.951 20.096C165.695 20.72 165.295 21.272 164.751 21.752C164.207 22.232 163.559 22.608 162.807 22.88C162.071 23.152 161.255 23.288 160.359 23.288Z" fill="#2A3547"/>
</svg>
